<svg width="60" height="72" viewBox="0 0 60 72" fill="none" xmlns="http://www.w3.org/2000/svg">
<path d="M30 0.5C15 0.5 0 2.375 0 15.5V51.125C0 54.606 1.38281 57.9444 3.84422 60.4058C6.30564 62.8672 9.64403 64.25 13.125 64.25L7.5 69.875V71.75H15.8625L23.3625 64.25H37.5L45 71.75H52.5V69.875L46.875 64.25C50.356 64.25 53.6944 62.8672 56.1558 60.4058C58.6172 57.9444 60 54.606 60 51.125V15.5C60 2.375 46.575 0.5 30 0.5ZM13.125 56.75C11.6332 56.75 10.2024 56.1574 9.14752 55.1025C8.09263 54.0476 7.5 52.6168 7.5 51.125C7.5 49.6332 8.09263 48.2024 9.14752 47.1475C10.2024 46.0926 11.6332 45.5 13.125 45.5C14.6168 45.5 16.0476 46.0926 17.1025 47.1475C18.1574 48.2024 18.75 49.6332 18.75 51.125C18.75 52.6168 18.1574 54.0476 17.1025 55.1025C16.0476 56.1574 14.6168 56.75 13.125 56.75ZM26.25 30.5H7.5V15.5H26.25V30.5ZM33.75 30.5V15.5H52.5V30.5H33.75ZM46.875 56.75C45.3832 56.75 43.9524 56.1574 42.8975 55.1025C41.8426 54.0476 41.25 52.6168 41.25 51.125C41.25 49.6332 41.8426 48.2024 42.8975 47.1475C43.9524 46.0926 45.3832 45.5 46.875 45.5C48.3668 45.5 49.7976 46.0926 50.8525 47.1475C51.9074 48.2024 52.5 49.6332 52.5 51.125C52.5 52.6168 51.9074 54.0476 50.8525 55.1025C49.7976 56.1574 48.3668 56.75 46.875 56.75Z" fill="url(#paint0_linear_132_158)"/>
<defs>
<linearGradient id="paint0_linear_132_158" x1="30" y1="0.5" x2="30" y2="71.75" gradientUnits="userSpaceOnUse">
<stop stop-color="white" stop-opacity="0.5"/>
<stop offset="1" stop-color="white"/>
</linearGradient>
</defs>
</svg>
