<svg width="50" height="42" viewBox="0 0 50 42" fill="white" xmlns="http://www.w3.org/2000/svg">
<path d="M4.16667 4.33317H12.5V0.166504H4.16667C3.0616 0.166504 2.00179 0.605491 1.22039 1.38689C0.438987 2.16829 0 3.2281 0 4.33317L0 12.6665H4.16667V4.33317ZM45.8333 0.166504H37.5V4.33317H45.8333V12.6665H50V4.33317C50 3.2281 49.561 2.16829 48.7796 1.38689C47.9982 0.605491 46.9384 0.166504 45.8333 0.166504ZM4.16667 29.3332H0V37.6665C0 38.7716 0.438987 39.8314 1.22039 40.6128C2.00179 41.3942 3.0616 41.8332 4.16667 41.8332H12.5V37.6665H4.16667V29.3332ZM45.8333 37.6665H37.5V41.8332H45.8333C46.9384 41.8332 47.9982 41.3942 48.7796 40.6128C49.561 39.8314 50 38.7716 50 37.6665V29.3332H45.8333V37.6665ZM8.33333 12.6665V29.3332C8.33333 30.4382 8.77232 31.498 9.55372 32.2794C10.3351 33.0609 11.3949 33.4998 12.5 33.4998H37.5C38.6051 33.4998 39.6649 33.0609 40.4463 32.2794C41.2277 31.498 41.6667 30.4382 41.6667 29.3332V12.6665C41.6667 11.5614 41.2277 10.5016 40.4463 9.72023C39.6649 8.93882 38.6051 8.49984 37.5 8.49984H12.5C11.3949 8.49984 10.3351 8.93882 9.55372 9.72023C8.77232 10.5016 8.33333 11.5614 8.33333 12.6665ZM12.5 29.3332V20.9998H37.5V29.3332H12.5ZM37.5 12.6665V16.8332H12.5V12.6665H37.5Z" />
</svg>
