
<svg width="26" height="26" viewBox="0 0 26 46" fill="none" xmlns="http://www.w3.org/2000/svg">
                <path d="M0.70488 0.694859C-0.232811 1.61923 -0.239257 3.11779 0.711324 4.04216L21.8754 24.6749C22.8228 25.5993 24.3534 25.5961 25.2943 24.6686C25.7615 24.208 26 23.6023 26 22.9997C26 22.3908 25.7615 21.7851 25.2879 21.3245L4.12375 0.691703C3.17639 -0.232669 1.64579 -0.229513 0.70488 0.694859ZM0.711648 41.9547C-0.238932 42.8791 -0.232487 44.3776 0.705204 45.302C1.64612 46.2295 3.17671 46.2327 4.12407 45.3114L18.1798 31.6099C18.6535 31.1493 18.8919 30.5404 18.8919 29.9347C18.8919 29.3321 18.6535 28.7264 18.1862 28.2658C17.2453 27.3382 15.7147 27.3351 14.7674 28.2563L0.711648 41.9547Z" fill="#D9D9D9" />
            </svg>