<svg width="68" height="54" viewBox="0 0 68 54" fill="none" xmlns="http://www.w3.org/2000/svg">
<path d="M67.3333 20.3335V7.00016C67.3333 3.30016 64.3333 0.333496 60.6667 0.333496H7.33333C3.66666 0.333496 0.666664 3.30016 0.666664 7.00016V20.3335C4.36666 20.3335 7.33333 23.3335 7.33333 27.0002C7.33333 30.6668 4.36666 33.6668 0.666664 33.6668V47.0002C0.666664 50.6668 3.66666 53.6668 7.33333 53.6668H60.6667C64.3333 53.6668 67.3333 50.6668 67.3333 47.0002V33.6668C63.6667 33.6668 60.6667 30.6668 60.6667 27.0002C60.6667 23.3335 63.6667 20.3335 67.3333 20.3335ZM60.6667 15.4668C56.7 17.7668 54 22.1002 54 27.0002C54 31.9002 56.7 36.2335 60.6667 38.5335V47.0002H7.33333V38.5335C11.3 36.2335 14 31.9002 14 27.0002C14 22.0002 11.3333 17.7668 7.33333 15.4668V7.00016H60.6667V15.4668ZM30.6667 37.0002H37.3333V43.6668H30.6667M30.6667 23.6668H37.3333V30.3335H30.6667M30.6667 10.3335H37.3333V17.0002H30.6667V10.3335Z" fill="#F78F20"/>
</svg>
